<?xml version="1.0" encoding="utf-8"?>
<!-- Generator: Adobe Illustrator 21.0.0, SVG Export Plug-In . SVG Version: 6.00 Build 0)  -->
<svg version="1.1" id="Capa_1" xmlns="http://www.w3.org/2000/svg" xmlns:xlink="http://www.w3.org/1999/xlink" x="0px" y="0px"
	 viewBox="0 0 512 512" style="enable-background:new 0 0 512 512;" xml:space="preserve">
<style type="text/css">
	.st0{fill:#FFFFFF;}
</style>
<g>
	<path class="st0" d="M481.5,214H380.2c-5.4,0-9.8,4.4-9.8,9.8s4.4,9.8,9.8,9.8h85l27.2,251.6H20.7l31.6-251.6h85
		c5.4,0,9.8-4.4,9.8-9.8s-4.4-9.8-9.8-9.8H35.9L0,502.7h512L481.5,214z"/>
	<path class="st0" d="M162.3,419.9c-5.4,2.2-10.9,5.4-16.3,6.5c-4.4,2.2-7.6,7.6-5.4,12c1.1,3.3,5.4,5.4,8.7,5.4
		c1.1,0,2.2,0,3.3-1.1c5.4-2.2,12-4.4,17.4-7.6c4.4-2.2,6.5-7.6,4.4-12C173.2,419.9,167.8,417.7,162.3,419.9z"/>
	<path class="st0" d="M341,349.1c0,5.4,4.4,8.7,9.8,8.7l0,0l18.5-1.1c5.4,0,8.7-4.4,8.7-9.8s-4.4-9.8-9.8-8.7l-18.5,1.1
		C344.2,339.3,339.9,343.7,341,349.1z"/>
	<path class="st0" d="M291.9,345.8c-5.4,1.1-8.7,6.5-7.6,10.9s4.4,7.6,8.7,7.6c1.1,0,1.1,0,2.2,0c5.4-1.1,10.9-2.2,17.4-3.3
		c5.4-1.1,8.7-5.4,7.6-10.9s-5.4-8.7-10.9-7.6C305,343.7,298.5,344.7,291.9,345.8z"/>
	<path class="st0" d="M209.2,391.6c-4.4,3.3-9.8,7.6-14.2,9.8c-4.4,3.3-5.4,8.7-3.3,13.1c2.2,3.3,4.4,4.4,7.6,4.4
		c2.2,0,3.3,0,5.4-1.1c5.4-3.3,10.9-7.6,15.3-10.9c4.4-3.3,5.4-8.7,2.2-13.1C219,389.4,212.4,389.4,209.2,391.6z"/>
	<path class="st0" d="M92.6,453.7c2.2,0,4.4,1.1,6.5,1.1c2.2,0,4.4,0,7.6,0c3.3,0,5.4,0,8.7-1.1c5.4-1.1,8.7-5.4,7.6-10.9
		c-1.1-5.4-5.4-8.7-10.9-7.6c-3.3,0-7.6,1.1-10.9,0c-1.1,0-2.2,0-3.3-1.1c-5.4-1.1-9.8,2.2-10.9,6.5C85,448.2,88.2,452.6,92.6,453.7
		z"/>
	<path class="st0" d="M434.7,304.4c-1.1,5.4,1.1,9.8,6.5,12c1.1,0,2.2,0,3.3,0c4.4,0,7.6-2.2,8.7-6.5c1.1-3.3,1.1-5.4,2.2-8.7
		c0-1.1,0-1.1,0-2.2c0-4.4-1.1-8.7-2.2-13.1c-2.2-4.4-7.6-7.6-12-5.4c-4.4,2.2-7.6,7.6-5.4,12c1.1,2.2,1.1,4.4,1.1,6.5v1.1
		C435.7,301.2,434.7,303.3,434.7,304.4z"/>
	<path class="st0" d="M94.8,380.7c1.1,0,3.3,0,4.4-1.1c2.2-1.1,5.4-2.2,8.7-2.2c1.1,0,2.2,0,3.3,0c5.4,1.1,9.8-3.3,10.9-7.6
		c1.1-5.4-3.3-9.8-7.6-10.9c-3.3,0-5.4,0-8.7,0c-5.4,1.1-10.9,2.2-15.3,4.4c-4.4,2.2-6.5,7.6-3.3,13.1
		C88.2,379.6,91.5,380.7,94.8,380.7z"/>
	<path class="st0" d="M404.2,336c-5.4,1.1-8.7,5.4-7.6,10.9c1.1,4.4,4.4,7.6,8.7,7.6c1.1,0,1.1,0,2.2,0c7.6-1.1,14.2-4.4,19.6-7.6
		c1.1,0,1.1-1.1,1.1-1.1c4.4-3.3,4.4-8.7,1.1-13.1c-3.3-4.4-9.8-4.4-13.1-1.1C412.9,332.8,408.5,334.9,404.2,336z"/>
	<path class="st0" d="M82.8,403.6c1.1-5.4-1.1-9.8-6.5-10.9c-5.4-1.1-9.8,1.1-10.9,6.5c-1.1,4.4-2.2,8.7-2.2,13.1c0,1.1,0,2.2,0,3.3
		c0,2.2,0,3.3,0,5.4c0,4.4,4.4,8.7,8.7,8.7H73c5.4,0,8.7-5.4,8.7-9.8c0-1.1,0-2.2,0-3.3c0-1.1,0-1.1,0-2.2
		C80.6,410.1,81.7,406.8,82.8,403.6z"/>
	<path class="st0" d="M416.1,258.7c-7.6-1.1-15.3,0-21.8,2.2c-5.4,1.1-7.6,6.5-6.5,12c1.1,4.4,4.4,6.5,8.7,6.5c1.1,0,2.2,0,2.2,0
		c4.4-1.1,9.8-2.2,14.2-1.1c5.4,1.1,9.8-3.3,10.9-7.6C424.9,264.1,421.6,258.7,416.1,258.7z"/>
	<path class="st0" d="M248.4,362.2c-1.1,1.1-3.3,1.1-4.4,2.2c-2.2,1.1-4.4,2.2-5.4,4.4c-4.4,3.3-5.4,8.7-2.2,13.1
		c2.2,2.2,4.4,4.4,7.6,4.4c2.2,0,4.4-1.1,5.4-2.2c2.2-1.1,3.3-2.2,5.4-3.3c3.3-2.2,6.5-3.3,9.8-5.4c4.4-2.2,6.5-7.6,4.4-12l0,0
		c16.3-17.4,74.1-85,97-196.1c4.4-22.9,5.4-44.7,3.3-64.3c-7.6-61-45.8-93.7-110-93.7s-102.4,32.7-110,93.7
		c-2.2,20.7-1.1,41.4,3.3,64.3C174.3,277.2,230.9,343.7,248.4,362.2z M258.2,48.4c38.1,0,68.6,30.5,68.6,68.6s-30.5,68.6-68.6,68.6
		s-68.6-30.5-68.6-68.6S220.1,48.4,258.2,48.4z"/>
</g>
</svg>
